<svg xmlns="http://www.w3.org/2000/svg" width="41" height="37" viewBox="0 0 41 37" fill="none">
  <path
    d="M17.9019 4.83337C19.0566 2.83338 21.9434 2.83337 23.0981 4.83337L35.2224 25.8334C36.3771 27.8334 34.9338 30.3334 32.6244 30.3334H8.37565C6.06624 30.3334 4.62287 27.8334 5.77757 25.8334L17.9019 4.83337Z"
    fill="#F44336" />
  <path
    d="M19.5442 21.0612L19.1254 12.6411H21.8746L21.4923 21.0612H19.5442ZM19.3985 22.4559C19.6898 22.177 20.0539 22.0375 20.4909 22.0375C20.9279 22.0375 21.3102 22.177 21.6015 22.4559C21.8928 22.7348 22.0385 23.0835 22.0385 23.5019C22.0385 23.9203 21.8928 24.2689 21.6015 24.5478C21.3102 24.8268 20.9279 24.9488 20.4909 24.9488C20.0539 24.9488 19.6898 24.8268 19.3985 24.5478C19.1072 24.2689 18.9615 23.9203 18.9615 23.5019C18.9615 23.0835 19.1072 22.7348 19.3985 22.4559Z"
    fill="white" />
</svg>