<svg width="20" height="20" viewBox="0 0 20 20" fill="none" xmlns="http://www.w3.org/2000/svg">
<g id="Ic, ImageSearch">
<path id="Union" fill-rule="evenodd" clip-rule="evenodd" d="M15 5.00001V7.50001H16.6666V5.00001H19.1666V3.33334H16.6666V0.833344L15 0.833344V3.33334H12.5V5.00001H15ZM3.33329 3.33334H10.8333V5.00001H3.33329L3.33329 13.9004L4.78791 12.5268C5.40679 11.9425 6.36656 11.9183 7.01404 12.4708L8.3579 13.6176L11.0176 10.8436C11.6436 10.1907 12.6762 10.1563 13.3443 10.7662L15 12.2776V9.16668H16.6666V16.6667C16.6666 17.5872 15.9204 18.3333 15 18.3333H3.33329C2.41282 18.3333 1.66663 17.5872 1.66663 16.6667V5.00001C1.66663 4.07954 2.41282 3.33334 3.33329 3.33334ZM15 14.5343L12.2206 11.9971L9.56093 14.7711C8.94983 15.4084 7.9477 15.4586 7.27603 14.8854L5.93217 13.7386L3.33329 16.1927V16.6667H15V14.5343ZM6.66663 7.50001C6.20639 7.50001 5.83329 7.87311 5.83329 8.33334C5.83329 8.79358 6.20639 9.16668 6.66663 9.16668C7.12686 9.16668 7.49996 8.79358 7.49996 8.33334C7.49996 7.87311 7.12686 7.50001 6.66663 7.50001ZM4.16663 8.33334C4.16663 6.95263 5.28591 5.83334 6.66663 5.83334C8.04734 5.83334 9.16663 6.95263 9.16663 8.33334C9.16663 9.71406 8.04734 10.8333 6.66663 10.8333C5.28591 10.8333 4.16663 9.71406 4.16663 8.33334Z" fill="#006F33"/>
</g>
</svg>
