<svg width="25" height="24" viewBox="0 0 25 24" fill="none" xmlns="http://www.w3.org/2000/svg">
  <path fill-rule="evenodd" clip-rule="evenodd" d="M18.5 6V9H20.5V6H23.5V4H20.5V1H18.5V4H15.5V6H18.5ZM4.5 4H13.5V6H4.5L4.5 16.6804L6.24555 15.0322C6.98819 14.3309 8.13992 14.302 8.91689 14.965L10.5295 16.3411L13.7212 13.0123C14.4724 12.2288 15.7115 12.1876 16.5132 12.9194L18.5 14.7331V11H20.5V20C20.5 21.1046 19.6046 22 18.5 22H4.5C3.39543 22 2.5 21.1046 2.5 20V6C2.5 4.89543 3.39543 4 4.5 4ZM18.5 17.4412L15.1648 14.3965L11.9732 17.7253C11.2398 18.4901 10.0373 18.5503 9.23129 17.8625L7.61865 16.4864L4.5 19.4312V20H18.5V17.4412ZM8.5 9C7.94772 9 7.5 9.44772 7.5 10C7.5 10.5523 7.94772 11 8.5 11C9.05228 11 9.5 10.5523 9.5 10C9.5 9.44772 9.05228 9 8.5 9ZM5.5 10C5.5 8.34315 6.84315 7 8.5 7C10.1569 7 11.5 8.34315 11.5 10C11.5 11.6569 10.1569 13 8.5 13C6.84315 13 5.5 11.6569 5.5 10Z" fill="#006F33"/>
</svg>
