<svg width="24" height="24" viewBox="0 0 24 24" fill="none" xmlns="http://www.w3.org/2000/svg">
<g id="Ic/SearchVideoLeft">
<path id="Union" fill-rule="evenodd" clip-rule="evenodd" d="M20 11C20 7.13401 16.866 4 13 4C9.13402 4 6.00002 7.13401 6.00002 11C6.00002 14.866 9.13402 18 13 18C16.866 18 20 14.866 20 11ZM13 2C17.9706 2 22 6.02944 22 11C22 15.9706 17.9706 20 13 20C10.2611 20 7.80792 18.7765 6.15721 16.8463L2.66349 19.9444L1.33655 18.448L5.02573 15.1766C4.37064 13.9284 4.00002 12.5075 4.00002 11C4.00002 6.02944 8.02945 2 13 2Z" fill="#B7B9B4"/>
</g>
</svg>
