<svg xmlns="http://www.w3.org/2000/svg" width="40" height="40" viewBox="0 0 40 40" fill="none">
  <path fill-rule="evenodd" clip-rule="evenodd" d="M3.33301 6.66665C3.33301 4.8257 4.82539 3.33331 6.66634 3.33331H33.333C35.174 3.33331 36.6663 4.8257 36.6663 6.66665V33.3333C36.6663 35.1743 35.174 36.6666 33.333 36.6666H6.66634C4.82539 36.6666 3.33301 35.1743 3.33301 33.3333V6.66665ZM13.3807 22.033L9.10688 26.0221C9.05639 26.0692 9.00201 26.112 8.94434 26.15L8.13407 26.684C7.66342 26.9941 7.0367 26.6566 7.0367 26.0929V8.70343C7.0367 7.78295 7.78289 7.03676 8.70337 7.03676H31.296C32.2164 7.03676 32.9626 7.78296 32.9626 8.70343V22.6373C32.9626 24.0092 31.2384 24.6196 30.3753 23.5531C30.3275 23.4941 30.2753 23.439 30.2189 23.3881L25.6715 19.2846C25.0055 18.6836 23.9832 18.7176 23.3586 19.3616L19.5508 23.2872C18.9412 23.9157 17.9492 23.9653 17.2799 23.4008L15.5925 21.9774C14.9475 21.4333 13.9976 21.4572 13.3807 22.033ZM14.444 18.1478C16.4895 18.1478 18.1477 16.4896 18.1477 14.4441C18.1477 12.3986 16.4895 10.7404 14.444 10.7404C12.3985 10.7404 10.7403 12.3986 10.7403 14.4441C10.7403 16.4896 12.3985 18.1478 14.444 18.1478Z" fill="#B7B9B4"/>
</svg>